<svg xmlns="http://www.w3.org/2000/svg" height="800" width="1200" viewBox="-61.15635 -28.9275 530.0217 173.565"><path d="M286.298 27.146l-1.485 1.823v57.775l1.485 1.837 48.247 9.716 2.218-1.83V19.25l-2.218-1.826zm46.745-5.627v72.653l-44.49-8.957V30.508z" fill="#ad608e"/><path d="M1.88 27.123L0 28.969v57.775l1.88 1.86h57.748l1.89-1.86V28.97l-1.89-1.846zm55.895 57.771H3.734V30.843h54.04z" fill="#5b56a6"/><path d="M137.487 8.063l-2.683 1.676v96.242l2.683 1.646 38.477-19.193 1.027-1.69V28.97l-1.027-1.652zm35.77 77.53l-34.72 17.354V12.76l34.72 17.37z" fill="#d35972"/><path d="M405.866 27.123h-57.792l-1.85 1.846v57.775l1.85 1.86h57.792l1.843-1.86V28.97zm-1.894 57.771h-54.024V30.843h54.024z" fill="#5b56a6"/><path d="M231.748 27.317l-1.04 1.652v57.775l1.044 1.69 38.467 19.193 2.697-1.646V9.74l-2.697-1.676zm37.434-14.557v90.187l-34.724-17.354V30.13z" fill="#d35972"/><path d="M202.01 115.71h3.737V0h-3.737z" fill="#f25a55"/><path d="M119.176 55.848v29.397l-44.5 8.94V21.539l44.5 8.976v7.625h3.724V29l-1.496-1.84-48.216-9.736-2.242 1.826v77.217l2.242 1.846 48.216-9.715 1.496-1.847V45.296z" fill="#ad608e"/><path d="M202.01 44.125v-6.48h-7.056l-13.888 39.183h8.434l5.353-15.176h7.157v-6.296c-1.426.01-3.483-.013-4.932-.013l3.861-11.185 1.07-.033zm6.794-6.481h-3.024v6.48c3.49 0 7.745.225 5.828 5.568-1.087 3.058-3.82 4.657-5.828 5.082v6.484c6.664-1.419 12.7-5.628 14.798-11.566 3.51-9.936-3.088-11.99-11.774-12.048M9.726 77.326L37.772 38.14h9.996l-.03 39.186h-8.3l.103-8.313H23.64l-5.882 8.313H9.725zM39.582 62.51l.3-16.715h-.113L28.113 62.51zm111.99 14.816h-8.411l13.874-39.186h8.42zm84.228 0l13.864-39.186h8.43L246.53 70.816h18.518l-2.298 6.51zm68.066-39.186h26.28l-2.3 6.513h-17.858l-3.258 9.17h16.72l-2.304 6.505H304.42l-3.707 10.488h18.461l-2.288 6.51h-26.892zm56.63 39.186h-9.033l20.99-20.304-6.179-18.882h10.365l3.235 13.305 13.162-13.305h9.016l-19.588 18.835 6.48 20.351h-10.325l-3.502-14.764zm-260.871 0L95.68 44.771l-.15.107-11.49 32.448h-7.869L90.033 38.14h12.486l4.014 30.826.148-.104 10.88-30.722h7.872l-13.881 39.187H99.625z"/></svg>